#!OML:ASF H:\ManfredETheater\Project 1\Capture day 1\Session 1\subject.ASF
:FULLY-SPECIFIED
:DEGREES
78
root 3.66304 21.2281 14.6536 -178.426 0.257991 181.007
lowerback 22.4664 -0.388838 5.47258
upperback 1.68487 1.73711 2.6932
thorax -10.6868 0.864659 -0.720702
lowerneck -15.8046 -0.824193 -0.805081
upperneck 15.8418 -0.582967 -2.87025
head 7.47287 -0.67805 -0.883925
rclavicle 1.59028e-014 2.62396e-014
rhumerus -2.83777 7.01843 -45.3449
rradius 80.1114
rwrist -3.4463
rhand -27.4 -1.2167
rfingers 7.12502
rthumb -0.806424 -31.1949
lclavicle 1.59028e-014 2.62396e-014
lhumerus -17.1827 -9.06078 51.179
lradius 82.7115
lwrist 2.47472
lhand -25.2454 -12.3241
lfingers 7.12502
lthumb 1.27453 17.6518
rfemur -11.9618 -0.948259 23.1849
rtibia 53.1634
rfoot 10.7064 -5.50154
rtoes -24.1097
lfemur -81.6414 6.83862 -9.02531
ltibia 99.0291
lfoot -6.09453 -11.7961
ltoes -3.52305
79
root 3.61756 21.4778 14.343 -178.707 1.1519 180.632
lowerback 23.3731 -0.297181 4.91399
upperback 2.06777 1.79259 2.52052
thorax -10.7539 0.934754 -0.6277
lowerneck -15.8912 -0.662724 -0.522036
upperneck 15.8195 -0.400128 -2.99977
head 7.48149 -0.584754 -0.953139
rclavicle 2.38542e-014 5.48646e-014
rhumerus -2.04079 6.28944 -45.3183
rradius 76.2535
rwrist -4.05449
rhand -27.822 -1.76459
rfingers 7.12502
rthumb -1.21398 -31.7409
lclavicle 2.38542e-014 5.48646e-014
lhumerus -18.0054 -7.70772 52.1127
lradius 81.509
lwrist 3.22906
lhand -25.217 -12.0623
lfingers 7.12502
lthumb 1.30197 17.9135
rfemur -14.9508 -1.67773 22.6175
rtibia 59.4926
rfoot 9.24916 -6.52371
rtoes -22.6725
lfemur -80.3223 6.89135 -9.08489
ltibia 95.6976
lfoot -6.09277 -11.2473
ltoes -4.1631
80
root 3.57211 21.7138 14.0351 -178.985 1.94945 180.084
lowerback 24.2891 -0.217182 4.24253
upperback 2.4234 1.78423 2.27395
thorax -10.8547 0.975613 -0.532723
lowerneck -15.9685 -0.514016 -0.256261
upperneck 15.7586 -0.234239 -3.10882
head 7.47635 -0.497463 -1.0141
rclavicle -5.56597e-015 3.18055e-014
rhumerus -1.27511 5.7389 -45.1896
rradius 72.3988
rwrist -4.85576
rhand -28.1393 -2.24951
rfingers 7.12502
rthumb -1.52042 -32.2238
lclavicle -5.56597e-015 3.18055e-014
lhumerus -18.6564 -6.33167 52.8684
lradius 80.2585
lwrist 3.79782
lhand -25.1556 -11.801
lfingers 7.12502
lthumb 1.36126 18.1744
rfemur -18.0401 -2.52806 21.9028
rtibia 65.7138
rfoot 7.66086 -7.51299
rtoes -21.3445
lfemur -78.9293 6.81431 -9.31743
ltibia 92.3544
lfoot -6.05013 -10.5174
ltoes -4.65792
81
root 3.52607 21.9342 13.7282 -179.243 2.61278 179.4
lowerback 25.1843 -0.154306 3.50766
upperback 2.73834 1.71673 1.9751
thorax -10.9864 0.988398 -0.439766
lowerneck -16.0083 -0.592214 0.0293218
upperneck 15.6409 -0.036715 -3.23795
head 7.44718 -0.259801 -1.06301
rclavicle 5.1684e-015 8.74653e-015
rhumerus -0.580351 5.356 -44.9285
rradius 68.6041
rwrist -5.77717
rhand -28.2437 -2.62953
rfingers 7.12502
rthumb -1.62125 -32.6031
lclavicle 5.1684e-015 8.74653e-015
lhumerus -19.1212 -4.99575 53.4657
lradius 78.9398
lwrist 4.19814
lhand -25.0937 -11.594
lfingers 7.12502
lthumb 1.4211 18.381
rfemur -21.2196 -3.54077 21.0788
rtibia 71.7277
rfoot 5.93045 -8.25714
rtoes -20.2662
lfemur -77.5233 6.59183 -9.69795
ltibia 89.0226
lfoot -5.96421 -9.63025
ltoes -4.94538
